# Blender v3.0.0 OBJ File: 'FirstAid [Blender2.79].blend'
# www.blender.org
mtllib first_aid.mtl
o FirstAid
v -0.626917 0.000001 -0.187500
v -0.626917 0.921678 -0.187500
v -0.286121 0.921678 -0.187500
v -0.286121 0.000001 -0.187500
v -0.248584 0.874107 -0.187500
v -0.248584 0.000001 -0.187500
v -0.000003 0.874107 -0.187500
v -0.000003 0.000001 -0.187500
v 0.248578 0.874107 -0.187500
v 0.248578 0.000001 -0.187500
v 0.286114 0.921678 -0.187500
v 0.286114 0.000001 -0.187500
v 0.626910 0.921678 -0.187500
v 0.626910 0.000001 -0.187500
v -0.626917 0.000001 0.187500
v -0.286121 0.000001 0.187500
v -0.286121 0.921678 0.187500
v -0.626917 0.921678 0.187500
v -0.248584 0.000001 0.187500
v -0.248584 0.874107 0.187500
v -0.000003 0.000001 0.187500
v -0.000003 0.874107 0.187500
v 0.248578 0.000001 0.187500
v 0.248578 0.874107 0.187500
v 0.286114 0.000001 0.187500
v 0.286114 0.921678 0.187500
v 0.626910 0.000001 0.187500
v 0.626910 0.921678 0.187500
v 0.626910 0.921677 -0.093750
v 0.626910 0.000001 -0.093750
v 0.626911 0.000001 0.093750
v 0.626911 0.921678 0.093750
v 0.286114 0.921677 -0.093750
v -0.000003 0.874107 -0.093750
v 0.248578 0.874107 -0.093750
v -0.248584 0.874107 -0.093750
v -0.286120 0.921677 -0.093750
v -0.626917 0.921677 -0.093750
v 0.286114 1.097453 -0.093750
v 0.580448 1.097453 -0.093750
v 0.248578 1.013669 -0.093750
v 0.248578 1.079053 -0.093750
v -0.286121 1.097453 -0.093750
v -0.248584 1.079053 -0.093750
v -0.248584 1.013669 -0.093750
v -0.580454 1.097453 -0.093750
v 0.286115 1.097453 0.000000
v 0.580448 1.097453 0.000000
v 0.248578 1.079053 0.000000
v -0.000003 1.079053 -0.093750
v -0.000003 1.079053 0.000000
v -0.248584 1.079053 0.000000
v -0.286121 1.097453 0.000000
v -0.580454 1.097453 0.000000
v 0.286115 1.097453 0.093750
v 0.580448 1.097453 0.093750
v 0.248578 1.079053 0.093750
v -0.000003 1.079053 0.093750
v -0.248584 1.079053 0.093750
v -0.286121 1.097453 0.093750
v -0.580454 1.097453 0.093750
v 0.286114 0.921678 0.093750
v 0.248578 1.013669 0.093750
v 0.248578 0.874107 0.093750
v -0.000003 1.013669 0.093750
v -0.248584 1.013669 0.093750
v -0.626917 0.921678 0.093750
v -0.286121 0.921678 0.093750
v -0.000003 0.874107 0.093750
v -0.248584 0.874107 0.093750
v -0.626917 0.000001 -0.093750
v -0.626917 0.000001 0.093750
v -0.000003 1.013669 -0.093750
vt 0.731008 0.020017
vt 0.731008 0.530843
vt 0.542127 0.530843
vt 0.542127 0.020017
vt 0.521323 0.504478
vt 0.521323 0.020017
vt 0.383550 0.504478
vt 0.383550 0.020017
vt 0.245778 0.504478
vt 0.245778 0.020017
vt 0.224974 0.530843
vt 0.224974 0.020017
vt 0.036093 0.530843
vt 0.036093 0.020017
vt 0.036093 0.020017
vt 0.224974 0.020017
vt 0.224974 0.530843
vt 0.036093 0.530843
vt 0.245778 0.020017
vt 0.245778 0.504478
vt 0.383550 0.020017
vt 0.383550 0.504478
vt 0.521323 0.020017
vt 0.521323 0.504478
vt 0.542127 0.020017
vt 0.542127 0.530843
vt 0.731008 0.020017
vt 0.731008 0.530843
vt 0.758577 0.017928
vt 0.758577 0.531938
vt 0.810860 0.531938
vt 0.810860 0.017928
vt 0.918719 0.017928
vt 0.918719 0.531938
vt 0.971002 0.531938
vt 0.971002 0.017928
vt 0.224974 0.530843
vt 0.036093 0.530843
vt 0.383550 0.504478
vt 0.245778 0.504478
vt 0.521323 0.504478
vt 0.542127 0.530843
vt 0.731008 0.530843
vt 0.224974 0.628264
vt 0.061844 0.628264
vt 0.245778 0.581828
vt 0.245778 0.618066
vt 0.542127 0.628264
vt 0.521323 0.618066
vt 0.521323 0.581828
vt 0.705257 0.628264
vt 0.711956 0.940613
vt 0.540065 0.940613
vt 0.540065 0.885863
vt 0.711956 0.885863
vt 0.518144 0.940613
vt 0.518144 0.885863
vt 0.372973 0.940613
vt 0.372973 0.885863
vt 0.227802 0.940613
vt 0.227801 0.885863
vt 0.205880 0.940613
vt 0.205880 0.885863
vt 0.033990 0.940613
vt 0.033990 0.885863
vt 0.540065 0.831113
vt 0.711956 0.831113
vt 0.518144 0.831113
vt 0.372973 0.831113
vt 0.227801 0.831113
vt 0.205880 0.831113
vt 0.033990 0.831113
vt 0.705257 0.628264
vt 0.542127 0.628264
vt 0.542127 0.530843
vt 0.731008 0.530843
vt 0.521323 0.618066
vt 0.521323 0.581828
vt 0.521323 0.504478
vt 0.383550 0.618066
vt 0.383550 0.581828
vt 0.245778 0.581828
vt 0.245778 0.618066
vt 0.521323 0.618066
vt 0.521323 0.581828
vt 0.224974 0.628264
vt 0.061844 0.628264
vt 0.036093 0.530843
vt 0.224974 0.530843
vt 0.383550 0.504478
vt 0.245778 0.504478
vt 0.971002 0.531938
vt 0.971002 0.017928
vt 0.918719 0.017928
vt 0.918719 0.531938
vt 0.814152 0.531938
vt 0.814152 0.017928
vt 0.761868 0.017928
vt 0.761868 0.531938
vt 0.383550 0.618066
vt 0.383550 0.581828
vt 0.521323 0.581828
vt 0.245778 0.581828
vt 0.245778 0.581828
vt 0.521323 0.504478
vt 0.245778 0.504478
vt 0.245778 0.618066
vt 0.857343 0.666410
vt 0.857343 0.782145
vt 0.962523 0.782145
vt 0.962523 0.666410
vt 0.575556 0.666410
vt 0.575556 0.782145
vt 0.680735 0.782145
vt 0.680735 0.666410
vt 0.845759 0.782145
vt 0.769039 0.782145
vt 0.692320 0.782145
vt 0.845759 0.666410
vt 0.769039 0.666410
vt 0.692320 0.666410
vt 0.810860 0.629966
vt 0.915427 0.629966
vt 0.814152 0.629966
vt 0.918719 0.629966
vn 0.0000 0.0000 -1.0000
vn 0.0000 -0.0000 1.0000
vn 1.0000 0.0000 0.0000
vn 0.9963 0.0858 -0.0000
vn 0.0000 1.0000 0.0000
vn 0.7850 0.6194 -0.0000
vn 0.7850 0.6195 -0.0000
vn -0.2259 0.9741 0.0000
vn 0.2259 0.9741 0.0000
vn -0.7850 0.6194 0.0000
vn -1.0000 0.0000 0.0000
vn -0.9963 0.0858 -0.0000
vn 0.0000 -1.0000 0.0000
vn 0.9668 0.2556 -0.0000
vn -0.9668 0.2556 -0.0000
usemtl FirstAid_Mat
s 1
f 1/1/1 2/2/1 3/3/1
f 3/3/1 4/4/1 1/1/1
f 4/4/1 3/3/1 5/5/1
f 5/5/1 6/6/1 4/4/1
f 6/6/1 5/5/1 7/7/1
f 7/7/1 8/8/1 6/6/1
f 8/8/1 7/7/1 9/9/1
f 9/9/1 10/10/1 8/8/1
f 10/10/1 9/9/1 11/11/1
f 11/11/1 12/12/1 10/10/1
f 12/12/1 11/11/1 13/13/1
f 13/13/1 14/14/1 12/12/1
f 15/15/2 16/16/2 17/17/2
f 17/17/2 18/18/2 15/15/2
f 16/16/2 19/19/2 20/20/2
f 20/20/2 17/17/2 16/16/2
f 19/19/2 21/21/2 22/22/2
f 22/22/2 20/20/2 19/19/2
f 21/21/2 23/23/2 24/24/2
f 24/24/2 22/22/2 21/21/2
f 23/23/2 25/25/2 26/26/2
f 26/26/2 24/24/2 23/23/2
f 25/25/2 27/27/2 28/28/2
f 28/28/2 26/26/2 25/25/2
f 14/29/3 13/30/3 29/31/4
f 29/31/4 30/32/3 14/29/3
f 31/33/3 32/34/4 28/35/3
f 28/35/3 27/36/3 31/33/3
f 13/13/5 11/11/5 33/37/5
f 33/37/5 29/38/5 13/13/5
f 9/9/5 7/7/5 34/39/5
f 34/39/5 35/40/5 9/9/5
f 7/7/5 5/5/5 36/41/5
f 36/41/5 34/39/5 7/7/5
f 5/5/6 3/3/7 37/42/6
f 37/42/6 36/41/6 5/5/6
f 3/3/5 2/2/5 38/43/5
f 38/43/5 37/42/5 3/3/5
f 29/38/1 33/37/1 39/44/1
f 39/44/1 40/45/1 29/38/1
f 33/37/1 35/40/1 41/46/1
f 33/37/1 41/46/1 42/47/1
f 33/37/1 42/47/1 39/44/1
f 36/41/1 37/42/1 43/48/1
f 43/48/1 44/49/1 45/50/1
f 36/41/1 43/48/1 45/50/1
f 37/42/1 38/43/1 46/51/1
f 46/51/1 43/48/1 37/42/1
f 40/52/5 39/53/8 47/54/8
f 47/54/8 48/55/5 40/52/5
f 39/53/8 42/56/8 49/57/8
f 49/57/8 47/54/8 39/53/8
f 42/56/8 50/58/5 51/59/5
f 51/59/5 49/57/8 42/56/8
f 50/58/5 44/60/9 52/61/9
f 52/61/9 51/59/5 50/58/5
f 44/60/9 43/62/9 53/63/9
f 53/63/9 52/61/9 44/60/9
f 43/62/9 46/64/5 54/65/5
f 54/65/5 53/63/9 43/62/9
f 48/55/5 47/54/8 55/66/8
f 55/66/8 56/67/5 48/55/5
f 47/54/8 49/57/8 57/68/8
f 57/68/8 55/66/8 47/54/8
f 49/57/8 51/59/5 58/69/5
f 58/69/5 57/68/8 49/57/8
f 51/59/5 52/61/9 59/70/9
f 59/70/9 58/69/5 51/59/5
f 52/61/9 53/63/9 60/71/9
f 60/71/9 59/70/9 52/61/9
f 53/63/9 54/65/5 61/72/5
f 61/72/5 60/71/9 53/63/9
f 56/73/2 55/74/2 62/75/2
f 62/75/2 32/76/2 56/73/2
f 55/74/2 57/77/2 63/78/2
f 55/74/2 63/78/2 64/79/2
f 55/74/2 64/79/2 62/75/2
f 58/80/2 65/81/2 63/82/2
f 63/82/2 57/83/2 58/80/2
f 59/84/2 66/85/2 65/81/2
f 65/81/2 58/80/2 59/84/2
f 60/86/2 61/87/2 67/88/2
f 67/88/2 68/89/2 60/86/2
f 32/76/5 62/75/5 26/26/5
f 26/26/5 28/28/5 32/76/5
f 62/75/10 64/79/10 24/24/10
f 24/24/10 26/26/10 62/75/10
f 64/79/5 69/90/5 22/22/5
f 22/22/5 24/24/5 64/79/5
f 69/90/5 70/91/5 20/20/5
f 20/20/5 22/22/5 69/90/5
f 70/91/7 68/89/7 17/17/7
f 17/17/7 20/20/7 70/91/7
f 68/89/5 67/88/5 18/18/5
f 18/18/5 17/17/5 68/89/5
f 2/92/11 1/93/11 71/94/11
f 71/94/11 38/95/12 2/92/11
f 67/96/12 72/97/11 15/98/11
f 15/98/11 18/99/11 67/96/12
f 11/11/10 9/9/10 35/40/10
f 35/40/10 33/37/10 11/11/10
f 44/49/1 50/100/1 73/101/1
f 73/101/1 45/50/1 44/49/1
f 50/100/1 42/47/1 41/46/1
f 41/46/1 73/101/1 50/100/1
f 64/79/5 35/40/5 34/39/5
f 34/39/5 69/90/5 64/79/5
f 69/90/5 34/39/5 36/41/5
f 36/41/5 70/91/5 69/90/5
f 41/102/13 63/78/13 65/81/13
f 65/81/13 73/101/13 41/102/13
f 73/101/13 65/81/13 66/103/13
f 66/103/13 45/104/13 73/101/13
f 63/78/11 41/102/11 35/105/11
f 35/105/11 64/79/11 63/78/11
f 70/91/3 36/106/3 45/104/3
f 45/104/3 66/103/3 70/91/3
f 60/86/2 68/89/2 70/91/2
f 60/86/2 70/91/2 66/103/2
f 60/86/2 66/103/2 59/107/2
f 25/108/13 12/109/13 14/110/13
f 14/110/13 27/111/13 25/108/13
f 15/112/13 1/113/13 4/114/13
f 4/114/13 16/115/13 15/112/13
f 10/116/13 12/109/13 25/108/13
f 8/117/13 10/116/13 25/108/13
f 6/118/13 8/117/13 25/108/13
f 25/108/13 23/119/13 21/120/13
f 6/118/13 25/108/13 21/120/13
f 6/118/13 21/120/13 19/121/13
f 6/118/13 19/121/13 16/115/13
f 6/118/13 16/115/13 4/114/13
f 32/34/4 29/31/4 40/122/14
f 40/122/14 56/123/14 32/34/4
f 31/33/3 30/32/3 29/31/4
f 29/31/4 32/34/4 31/33/3
f 61/124/15 46/125/15 38/95/12
f 38/95/12 67/96/12 61/124/15
f 67/96/12 38/95/12 71/94/11
f 71/94/11 72/97/11 67/96/12
