# Blender v3.0.0 OBJ File: 'buildings.blend'
# www.blender.org
mtllib industrial_building.mtl
o IndustrialBuildingFront_Plane.001
v -4.000000 0.000000 0.000000
v 4.000000 0.000000 0.000000
v -4.000000 8.000000 0.000000
v 4.000000 8.000000 0.000000
v -1.395247 0.000000 0.000000
v 1.302273 0.000000 0.000000
v -4.000000 4.000000 0.000000
v -4.000000 2.091903 0.000000
v 4.000000 4.013990 0.000000
v -4.000000 5.913846 0.000000
v -1.138624 2.490180 -0.071184
v -1.687221 4.402674 -0.071184
v -1.687221 5.516383 -0.071184
v 1.023660 2.490180 -0.071184
v 1.565372 4.402674 -0.071184
v 1.565372 5.516383 -0.071184
v -3.759171 1.700146 -0.071184
v -3.759171 0.595188 -0.071184
v 1.565372 0.595188 -0.071184
v 3.689717 0.595188 -0.071184
v -1.687221 0.595188 -0.071184
v -3.759171 4.402674 -0.071184
v 1.023660 7.413563 -0.071184
v -1.138624 7.413563 -0.071184
v -1.138624 5.516383 -0.071184
v -1.138624 6.280165 -0.071184
v 1.023660 5.516383 -0.071184
v 1.023660 6.280165 -0.071184
v -3.759171 5.516383 -0.071184
v 3.689717 1.700146 -0.071184
v 3.689717 4.402674 -0.071184
v 3.689717 5.516383 -0.071184
v -1.687221 2.490180 -0.071184
v -1.687221 1.700146 -0.071184
v -1.138624 4.402674 -0.071184
v -1.138624 3.627953 -0.071184
v 1.565372 2.490180 -0.071184
v 1.565372 1.700146 -0.071184
v 1.023660 4.402674 -0.071184
v 1.023660 3.627953 -0.071184
v 3.689717 6.280165 -0.071184
v 3.689717 7.413563 -0.071184
v -1.687221 7.413563 -0.071184
v -3.759171 7.413563 -0.071184
v -1.138624 0.595188 -0.071184
v 1.023660 0.595188 -0.071184
v 1.565372 7.413563 -0.071184
v -3.759171 6.280165 -0.071184
v -1.415609 8.000000 0.000000
v -1.687221 6.280165 -0.071184
v 1.565372 6.280165 -0.071184
v -3.759171 3.627953 -0.071184
v -3.759171 2.490180 -0.071184
v 3.689717 2.490180 -0.071184
v 3.689717 3.627953 -0.071184
v -1.138624 1.700146 -0.071184
v -1.687221 3.627953 -0.071184
v 1.023660 1.700146 -0.071184
v 1.565372 3.627953 -0.071184
v 4.000000 5.908601 0.000000
v 4.000000 2.094553 0.000000
v 1.316688 8.000000 0.000000
v -3.793395 1.734370 0.000000
v -3.793395 0.560964 0.000000
v 1.531148 0.560964 0.000000
v 3.723941 0.560964 0.000000
v 3.723941 6.245941 0.000000
v 3.723941 7.447787 0.000000
v -1.652997 7.447787 0.000000
v -3.793395 7.447787 0.000000
v -1.652997 0.560964 0.000000
v -1.172848 0.560964 0.000000
v 1.057884 0.560964 0.000000
v 1.531148 7.447787 0.000000
v 1.057884 7.447787 0.000000
v -1.172848 7.447787 0.000000
v -3.793395 6.245941 0.000000
v -3.793395 5.550607 0.000000
v -3.793395 4.368450 0.000000
v -3.793395 3.662177 0.000000
v -3.793395 2.455956 0.000000
v 3.723941 1.734370 0.000000
v 3.723941 2.455956 0.000000
v 3.723941 3.662177 0.000000
v 3.723941 4.368450 0.000000
v 3.723941 5.550607 0.000000
v -1.172848 6.245941 0.000000
v 1.057884 6.245941 0.000000
v -1.652997 1.734370 0.000000
v -1.172848 2.455956 0.000000
v -1.172848 3.662177 0.000000
v -1.652997 4.368450 0.000000
v -1.652997 5.550607 0.000000
v 1.531148 1.734370 0.000000
v 1.057884 2.455956 0.000000
v 1.057884 3.662177 0.000000
v 1.531148 4.368450 0.000000
v 1.531148 5.550607 0.000000
v -1.652997 6.245941 0.000000
v 1.531148 6.245941 0.000000
v -1.172848 1.734370 0.000000
v -1.652997 2.455956 0.000000
v -1.652997 3.662177 0.000000
v -1.172848 4.368450 0.000000
v -1.172848 5.550607 0.000000
v 1.057884 1.734370 0.000000
v 1.531148 2.455956 0.000000
v 1.531148 3.662177 0.000000
v 1.057884 4.368450 0.000000
v 1.057884 5.550607 0.000000
vt 0.695312 0.785156
vt 0.960938 0.785156
vt 0.960938 0.925781
vt 0.695312 0.925781
vt 0.031250 0.785156
vt 0.289062 0.785156
vt 0.289062 0.925781
vt 0.031250 0.925781
vt 0.359375 0.785156
vt 0.625000 0.785156
vt 0.625000 0.925781
vt 0.359375 0.925781
vt 0.359375 0.074219
vt 0.625000 0.074219
vt 0.625000 0.210938
vt 0.359375 0.210938
vt 0.359375 0.312500
vt 0.625000 0.312500
vt 0.625000 0.453125
vt 0.359375 0.453125
vt 0.359375 0.550781
vt 0.625000 0.550781
vt 0.625000 0.687500
vt 0.359375 0.691406
vt 0.031250 0.074219
vt 0.289062 0.074219
vt 0.289062 0.214844
vt 0.031250 0.214844
vt 0.031250 0.312500
vt 0.289062 0.312500
vt 0.289062 0.453125
vt 0.031250 0.453125
vt 0.031250 0.550781
vt 0.289062 0.550781
vt 0.289062 0.691406
vt 0.031250 0.691406
vt 0.691406 0.074219
vt 0.960938 0.074219
vt 0.960938 0.210938
vt 0.691406 0.210938
vt 0.695312 0.312500
vt 0.960938 0.312500
vt 0.960938 0.453125
vt 0.691406 0.453125
vt 0.695312 0.550781
vt 0.960938 0.550781
vt 0.960938 0.687500
vt 0.695312 0.687500
vt 0.027344 0.070312
vt 0.027344 0.218750
vt 0.000000 0.261719
vt 0.000000 0.000000
vt 0.687500 0.218750
vt 0.628906 0.218750
vt 0.628906 0.070312
vt 0.687500 0.070312
vt 0.687500 0.929688
vt 0.964844 0.929688
vt 1.000000 1.000000
vt 0.660156 1.000000
vt 0.355469 0.308594
vt 0.292969 0.308594
vt 0.292969 0.218750
vt 0.355469 0.218750
vt 0.964844 0.214844
vt 0.964844 0.070312
vt 1.000000 0.000000
vt 1.000000 0.261719
vt 0.687500 0.546875
vt 0.687500 0.457031
vt 0.964844 0.457031
vt 0.964844 0.546875
vt 0.355469 0.695312
vt 0.628906 0.695312
vt 0.628906 0.781250
vt 0.355469 0.781250
vt 0.027344 0.308594
vt 0.964844 0.781250
vt 0.687500 0.781250
vt 0.687500 0.695312
vt 0.964844 0.695312
vt 0.628906 0.457031
vt 0.628906 0.546875
vt 0.292969 0.070312
vt 0.355469 0.070312
vt 0.324219 0.000000
vt 0.660156 0.000000
vt 0.628906 0.929688
vt 0.324219 1.000000
vt 0.355469 0.929688
vt 0.628906 0.308594
vt 0.687500 0.308594
vt 0.964844 0.308594
vt 0.027344 0.695312
vt 0.292969 0.695312
vt 0.292969 0.781250
vt 0.027344 0.781250
vt 0.355469 0.546875
vt 0.292969 0.546875
vt 0.292969 0.457031
vt 0.355469 0.457031
vt 0.027344 0.546875
vt 0.000000 0.500000
vt 0.027344 0.457031
vt 1.000000 0.738281
vt 0.292969 0.929688
vt 0.000000 1.000000
vt 0.027344 0.929688
vt 0.000000 0.738281
vt 1.000000 0.500000
vn 0.0000 0.0000 1.0000
vn 0.9012 0.0000 0.4333
vn 0.0000 0.9012 0.4333
vn -0.9012 0.0000 0.4333
vn 0.0000 -0.9012 0.4333
vn 0.0000 0.9013 0.4333
vn 0.0000 -0.9013 0.4333
usemtl industrial_building
s off
f 51/1/1 41/2/1 42/3/1 47/4/1
f 48/5/1 50/6/1 43/7/1 44/8/1
f 26/9/1 28/10/1 23/11/1 24/12/1
f 45/13/1 46/14/1 58/15/1 56/16/1
f 11/17/1 14/18/1 40/19/1 36/20/1
f 35/21/1 39/22/1 27/23/1 25/24/1
f 18/25/1 21/26/1 34/27/1 17/28/1
f 53/29/1 33/30/1 57/31/1 52/32/1
f 22/33/1 12/34/1 13/35/1 29/36/1
f 19/37/1 20/38/1 30/39/1 38/40/1
f 37/41/1 54/42/1 55/43/1 59/44/1
f 15/45/1 31/46/1 32/47/1 16/48/1
f 64/49/1 63/50/1 8/51/1 1/52/1
f 94/53/1 106/54/1 73/55/1 65/56/1
f 74/57/1 68/58/1 4/59/1 62/60/1
f 90/61/1 102/62/1 89/63/1 101/64/1
f 82/65/1 66/66/1 2/67/1 61/68/1
f 97/69/1 108/70/1 84/71/1 85/72/1
f 105/73/1 110/74/1 88/75/1 87/76/1
f 89/63/1 102/62/1 81/77/1 63/50/1
f 67/78/1 100/79/1 98/80/1 86/81/1
f 96/82/1 108/70/1 97/69/1 109/83/1
f 101/64/1 89/63/1 71/84/1 72/85/1
f 73/55/1 72/85/1 5/86/1 6/87/1
f 75/88/1 88/75/1 100/79/1 74/57/1
f 62/60/1 49/89/1 76/90/1 75/88/1
f 108/70/1 96/82/1 95/91/1 107/92/1
f 107/92/1 94/53/1 82/65/1 83/93/1
f 109/83/1 97/69/1 98/80/1 110/74/1
f 78/94/1 93/95/1 99/96/1 77/97/1
f 95/91/1 106/54/1 94/53/1 107/92/1
f 83/93/1 82/65/1 61/68/1
f 101/64/1 106/54/1 95/91/1 90/61/1
f 104/98/1 92/99/1 103/100/1 91/101/1
f 104/98/1 91/101/1 96/82/1 109/83/1
f 91/101/1 103/100/1 102/62/1 90/61/1
f 103/100/1 92/99/1 79/102/1 7/103/1 80/104/1
f 99/96/1 93/95/1 105/73/1 87/76/1
f 86/81/1 60/105/1 67/78/1
f 62/60/1 75/88/1 74/57/1
f 93/95/1 92/99/1 104/98/1 105/73/1
f 110/74/1 98/80/1 100/79/1 88/75/1
f 76/90/1 49/89/1 69/106/1
f 49/89/1 3/107/1 70/108/1 69/106/1
f 69/106/1 99/96/1 87/76/1 76/90/1
f 60/105/1 4/59/1 68/58/1 67/78/1
f 77/97/1 70/108/1 3/107/1 10/109/1
f 85/72/1 84/71/1 9/110/1
f 9/110/1 60/105/1 86/81/1 85/72/1
f 81/77/1 8/51/1 63/50/1
f 65/56/1 6/87/1 2/67/1 66/66/1
f 61/68/1 9/110/1 84/71/1 83/93/1
f 65/56/1 73/55/1 6/87/1
f 72/85/1 71/84/1 5/86/1
f 5/86/1 71/84/1 64/49/1 1/52/1
f 8/51/1 81/77/1 80/104/1 7/103/1
f 10/109/1 78/94/1 77/97/1
f 10/109/1 7/103/1 79/102/1 78/94/1
f 18/25/2 17/28/2 63/50/2 64/49/2
f 20/38/3 19/37/3 65/56/3 66/66/3
f 42/3/4 41/2/4 67/78/4 68/58/4
f 44/8/5 43/7/5 69/106/5 70/108/5
f 21/26/3 18/25/3 64/49/3 71/84/3
f 46/14/3 45/13/3 72/85/3 73/55/3
f 47/4/5 42/3/5 68/58/5 74/57/5
f 24/12/5 23/11/5 75/88/5 76/90/5
f 48/5/2 44/8/2 70/108/2 77/97/2
f 22/33/2 29/36/2 78/94/2 79/102/2
f 53/29/2 52/32/2 80/104/2 81/77/2
f 30/39/4 20/38/4 66/66/4 82/65/4
f 55/43/4 54/42/4 83/93/4 84/71/4
f 32/47/4 31/46/4 85/72/4 86/81/4
f 26/9/2 24/12/2 76/90/2 87/76/2
f 23/11/4 28/10/4 88/75/4 75/88/4
f 34/27/4 21/26/4 71/84/4 89/63/4
f 11/17/2 36/20/2 91/101/2 90/61/2
f 13/35/4 12/34/4 92/99/4 93/95/4
f 19/37/2 38/40/2 94/53/2 65/56/2
f 40/19/4 14/18/4 95/91/4 96/82/4
f 15/45/2 16/48/2 98/80/2 97/69/2
f 14/18/3 11/17/3 90/61/3 95/91/3
f 36/20/5 40/19/5 96/82/5 91/101/5
f 28/10/6 26/9/6 87/76/6 88/75/6
f 17/28/5 34/27/5 89/63/5 63/50/5
f 12/34/3 22/33/3 79/102/3 92/99/3
f 29/36/5 13/35/5 93/95/5 78/94/5
f 38/40/5 30/39/5 82/65/5 94/53/5
f 31/46/3 15/45/3 97/69/3 85/72/3
f 16/48/7 32/47/7 86/81/7 98/80/7
f 43/7/4 50/6/4 99/96/4 69/106/4
f 51/1/2 47/4/2 74/57/2 100/79/2
f 45/13/2 56/16/2 101/64/2 72/85/2
f 57/31/4 33/30/4 102/62/4 103/100/4
f 35/21/2 25/24/2 105/73/2 104/98/2
f 58/15/4 46/14/4 73/55/4 106/54/4
f 37/41/2 59/44/2 108/70/2 107/92/2
f 27/23/4 39/22/4 109/83/4 110/74/4
f 56/16/5 58/15/5 106/54/5 101/64/5
f 39/22/3 35/21/3 104/98/3 109/83/3
f 25/24/5 27/23/5 110/74/5 105/73/5
f 33/30/3 53/29/3 81/77/3 102/62/3
f 52/32/5 57/31/5 103/100/5 80/104/5
f 50/6/6 48/5/6 77/97/6 99/96/6
f 54/42/3 37/41/3 107/92/3 83/93/3
f 59/44/5 55/43/5 84/71/5 108/70/5
f 41/2/3 51/1/3 100/79/3 67/78/3
