# Blender v3.0.0 OBJ File: 'Leanto A.blend'
# www.blender.org
mtllib leanto.mtl
o SketchUp_ID3
v -1.500000 2.500000 0.000000
v -1.500000 -0.500000 2.000000
v -1.500000 -0.500000 0.000000
v -1.000000 2.000000 0.000000
v 1.500000 2.000000 0.000000
v -1.000000 -0.500000 0.000000
v -0.000000 -0.500000 0.000000
v 1.500000 -0.500000 0.000000
v 1.500000 -0.500000 2.000000
v 1.785193 1.967076 2.000000
v 1.785193 1.967076 -0.124670
v -1.785193 2.562141 2.000000
v -1.785193 2.562141 -0.124670
v -1.500000 2.500000 2.000000
v -0.000000 2.000000 0.000000
v 1.500000 2.000000 2.000000
v -1.500000 2.500000 0.000000
v -1.500000 -0.500000 2.000000
v -1.500000 -0.500000 0.000000
v -1.000000 2.000000 0.000000
v 1.500000 2.000000 0.000000
v -1.000000 -0.500000 0.000000
v -0.000000 -0.500000 0.000000
v 1.500000 -0.500000 0.000000
v 1.500000 -0.500000 2.000000
v 1.785193 1.967076 2.000000
v 1.785193 1.967076 -0.124670
v -1.785193 2.562141 2.000000
v -1.785193 2.562141 -0.124670
v -1.500000 2.500000 2.000000
v -0.000000 2.000000 0.000000
v 1.500000 2.000000 2.000000
vt 0.116152 0.045372
vt 0.874773 0.045372
vt 0.874773 0.996370
vt 0.116152 0.996370
vt 0.027223 0.123412
vt 0.497278 0.119782
vt 0.497278 0.856624
vt 0.809437 0.856624
vt 0.809437 0.136116
vt 0.965517 0.136116
vt 0.965517 0.987296
vt 0.027223 0.989111
vt 0.139746 0.159710
vt 0.938294 0.159710
vt 0.938294 0.994555
vt 0.139746 0.994555
vt 0.831216 0.952813
vt 0.165154 0.952813
vt 0.165154 0.003630
vt 0.831216 0.003630
vt 0.116152 0.045372
vt 0.116152 0.996370
vt 0.874773 0.996370
vt 0.874773 0.045372
vt 0.027223 0.123412
vt 0.027223 0.989111
vt 0.965517 0.987296
vt 0.965517 0.136116
vt 0.809437 0.136116
vt 0.809437 0.856624
vt 0.497278 0.856624
vt 0.497278 0.119782
vt 0.139746 0.159710
vt 0.139746 0.994555
vt 0.938294 0.994555
vt 0.938294 0.159710
vt 0.831216 0.952813
vt 0.831216 0.003630
vt 0.165154 0.003630
vt 0.165154 0.952813
vn -1.0000 0.0000 0.0000
vn -0.0000 0.0000 -1.0000
vn 1.0000 0.0000 0.0000
vn 0.1644 0.9864 0.0000
vn 0.0000 -0.0000 1.0000
vn -0.1644 -0.9864 0.0000
usemtl material
s off
f 3/1/1 2/2/1 14/3/1 1/4/1
f 8/5/2 7/6/2 15/7/2 4/8/2 6/9/2 3/10/2 1/11/2 5/12/2
f 9/13/3 8/14/3 5/15/3 16/16/3
f 13/17/4 12/18/4 10/19/4 11/20/4
f 19/21/3 17/22/3 30/23/3 18/24/3
f 24/25/5 21/26/5 17/27/5 19/28/5 22/29/5 20/30/5 31/31/5 23/32/5
f 25/33/1 32/34/1 21/35/1 24/36/1
f 29/37/6 27/38/6 26/39/6 28/40/6
